<svg fill="none" viewBox="0 0 110 44" width="150" xmlns="http://www.w3.org/2000/svg"><path d="M44.172 21.109c-.044-5.379-6.706-9.706-14.89-9.706h-.194a21.112 21.112 0 0 0-7.74 1.467c-4.144 1.665-6.956 4.598-7.165 7.964V22.367c.161 2.676 1.613 5.111 4.125 6.89 2.731 1.928 6.435 2.933 10.717 2.933h.231c4.4-.037 8.177-1.122 10.916-3.132 2.592-1.888 4.03-4.52 4.008-7.388l-.008-.561Zm-.814-1.162a34.221 34.221 0 0 0-6.138 2.057c-1.419-1.218-4.7-4.034-5.588-4.679a4.078 4.078 0 0 0-1.191-.678 1.831 1.831 0 0 0-.598-.085 2.35 2.35 0 0 0-.733.132 5.959 5.959 0 0 0-1.72 1.1l-.033.03a4.745 4.745 0 0 1-1.415.913c-.17.037-.343.057-.517.058a1.342 1.342 0 0 1-.913-.267.257.257 0 0 1 .04-.063l1.236-1.353c.957-.975 1.859-1.892 3.949-1.958h.102a7.301 7.301 0 0 1 2.747.65 8.8 8.8 0 0 0 3.857.89 9.962 9.962 0 0 0 4.121-1.023c1.467 1.232 2.446 2.699 2.794 4.276Zm-14.263-7.873h.187c1.976-.008 3.943.26 5.845.796l.124.037.257.077a15.461 15.461 0 0 1 4.382 2.16 8.946 8.946 0 0 1-3.45.78h-.056a8.034 8.034 0 0 1-3.476-.821 8.143 8.143 0 0 0-3.05-.7h-.162a5.357 5.357 0 0 0-3.487 1.261 7.178 7.178 0 0 0-1.727.334 4.403 4.403 0 0 1-1.188.238H22.836a23.842 23.842 0 0 1-4.239-1.13c2.695-1.895 6.509-2.999 10.498-3.032Zm-11.187 3.553c1.9.76 4.1 1.298 4.767 1.335h.15c.154 0 .312.018.47.022a5.267 5.267 0 0 0 1.396-.271c.184-.055.367-.107.554-.15l-.026.025-1.254 1.379a.732.732 0 0 0-.187.803.95.95 0 0 0 .367.41c.428.239.911.358 1.4.345.191.004.382-.015.569-.055.546-.125 1.1-.576 1.705-1.063a5.66 5.66 0 0 1 1.61-.987 1.87 1.87 0 0 1 .436-.062h.11c.448.074.867.27 1.21.568.994.734 5.24 4.4 5.727 4.804a.792.792 0 0 1 .253.601.656.656 0 0 1-.322.539 1.042 1.042 0 0 1-.554.18.924.924 0 0 1-.491-.147l-.118-.106a85.716 85.716 0 0 0-2.075-1.834.536.536 0 0 0-.334-.165.238.238 0 0 0-.19.096c-.11.135-.052.33.143.491l1.859 1.833c.123.116.204.27.23.437a.733.733 0 0 1-.392.685c-.175.128-.384.2-.601.206a.894.894 0 0 1-.455-.129l-.267-.264c-.48-.465-.98-.946-1.346-1.246a.561.561 0 0 0-.33-.162.252.252 0 0 0-.183.081c-.052.062-.118.19.029.367.048.058.099.11.099.11l1.357 1.496a.414.414 0 0 1 .007.546l-.04.059-.118.11a.972.972 0 0 1-.597.194c-.055.004-.11.004-.165 0-.154-.026-.198-.062-.213-.08l-.044-.045a15.29 15.29 0 0 0-1.217-1.14.528.528 0 0 0-.316-.154.241.241 0 0 0-.187.084c-.113.129-.062.316.129.492l1.023 1.14c-.026.037-.14.161-.532.213-.05.003-.1.003-.15 0a2.458 2.458 0 0 1-.998-.275 1.834 1.834 0 0 0-.017-1.37 1.812 1.812 0 0 0-1.644-1.103 1.569 1.569 0 0 0-.938-1.59 1.98 1.98 0 0 0-.734-.158 1.624 1.624 0 0 0-.48.077 1.547 1.547 0 0 0-.858-.678 1.811 1.811 0 0 0-1.584.176 1.529 1.529 0 0 0-1.133-.502c-.38.005-.745.148-1.027.403-.436-.304-1.895-1.159-5.558-1.958a21.688 21.688 0 0 1-.825-.22c.326-1.599 1.33-3.117 2.9-4.393Zm7.234 9.614a.263.263 0 0 0-.12-.062.242.242 0 0 0-.195.062c-.152.13-.338.213-.535.242a.78.78 0 0 1-.283-.051 1.118 1.118 0 0 1-.762-1.276.19.19 0 0 0-.07-.205c-.095-.063-.187.029-.246.088a.612.612 0 0 1-.51.165.906.906 0 0 1-.839-.858.807.807 0 0 1 .238-.587.813.813 0 0 1 .576-.242.755.755 0 0 1 .836.62v.047c0 .019.022.165.106.195.085.029.154-.063.195-.121a.181.181 0 0 1 .029-.044l.026-.033a.976.976 0 0 1 .938-.411c.125 0 .248.018.367.055a.844.844 0 0 1 .561.85.205.205 0 0 0 .198.21.236.236 0 0 0 .172-.085.91.91 0 0 1 .631-.34c.162 0 .322.035.47.102.806.308.44 1.327.44 1.335-.048.117-.125.319.04.425h.099c.06-.005.12-.02.176-.044h.025c.135-.053.277-.086.422-.095a1.082 1.082 0 1 1 0 2.16 1.07 1.07 0 0 1-1.078-1.02c0-.246-.143-.286-.22-.286a.315.315 0 0 0-.202.103.733.733 0 0 1-.513.238.847.847 0 0 1-.345-.073.785.785 0 0 1-.579-.862.235.235 0 0 0-.048-.202ZM43.498 21.7c0 .12-.015.242-.044.367-.323 2.079-1.735 4.033-4.063 5.537-2.713 1.767-6.31 2.75-10.142 2.783h-.19c-7.822 0-14.183-4.034-14.224-9.039 0-.157 0-.33.022-.524l.796.18c3.608.77 4.957 1.584 5.295 1.833a1.548 1.548 0 0 0 1.456 2.06c.069.004.139.004.208 0a1.775 1.775 0 0 0 1.14 1.236 1.491 1.491 0 0 0 .83.074c.191.381.524.673.927.814.193.075.398.115.605.117.133 0 .265-.02.392-.059a1.8 1.8 0 0 0 1.625 1.027 1.797 1.797 0 0 0 1.235-.51 3.3 3.3 0 0 0 1.669.4 1.405 1.405 0 0 0 1.089-.612c.138.033.28.05.421.051.36-.012.706-.14.987-.367.275-.19.476-.468.572-.788h.238a1.833 1.833 0 0 0 1.008-.33 1.485 1.485 0 0 0 .734-1.21c.074.007.149.007.223 0 .338.007.67-.085.957-.264a1.407 1.407 0 0 0 .66-1.1 1.492 1.492 0 0 0-.168-.788 37.966 37.966 0 0 1 5.734-1.834c0 .158.03.32.03.48 0 .162-.022.312-.022.466ZM95.025 15c-.538-.687-1.356-1.03-2.456-1.03-1.1 0-1.92.338-2.457 1.015a3.703 3.703 0 0 0-.81 2.395 3.696 3.696 0 0 0 .81 2.409c.538.665 1.357.997 2.457.997 1.1 0 1.918-.332 2.456-.997a3.696 3.696 0 0 0 .81-2.41 3.703 3.703 0 0 0-.81-2.379Zm-1.334 3.88a1.485 1.485 0 0 1-2.26 0 2.42 2.42 0 0 1-.391-1.486 2.395 2.395 0 0 1 .392-1.466 1.49 1.49 0 0 1 2.259 0c.284.434.422.948.392 1.466a2.442 2.442 0 0 1-.392 1.485ZM81.231 14.432a4.126 4.126 0 0 0-1.877-.415c-1.1 0-1.834.283-2.296.847a2.464 2.464 0 0 0-.473 1.383h1.621c.025-.215.108-.419.239-.59a1.071 1.071 0 0 1 .85-.294c.28-.015.56.037.818.15a.564.564 0 0 1 .275.547.506.506 0 0 1-.367.476 2.75 2.75 0 0 1-.67.147l-.576.07a4.103 4.103 0 0 0-1.467.41 1.833 1.833 0 0 0-.92 1.716 1.77 1.77 0 0 0 .572 1.408c.41.327.922.504 1.448.499 3.666.161 3.619-1.932 3.666-2.365v-2.41c-.022-.773-.293-1.308-.843-1.58Zm-.847 3.666a1.353 1.353 0 0 1-.484 1.159c-.296.209-.65.32-1.012.319a.91.91 0 0 1-.587-.19.734.734 0 0 1-.242-.62.77.77 0 0 1 .397-.715c.243-.116.502-.193.77-.228l.366-.07c.153-.027.304-.066.451-.117.114-.042.224-.096.326-.161l.015.623ZM72.886 15.436a1.1 1.1 0 0 1 .924.389c.136.191.222.413.253.645h1.808c-.103-.913-.422-1.547-.957-1.91a3.707 3.707 0 0 0-2.083-.524 3.037 3.037 0 0 0-2.34.916 3.623 3.623 0 0 0-.847 2.567 3.571 3.571 0 0 0 .767 2.376c.51.608 1.309.913 2.394.913a2.889 2.889 0 0 0 2.46-1.1c.33-.415.531-.917.58-1.445h-1.8c-.022.3-.131.587-.316.825a1.1 1.1 0 0 1-.88.316 1.173 1.173 0 0 1-1.188-.8 2.999 2.999 0 0 1-.176-1.13 3.27 3.27 0 0 1 .176-1.18 1.206 1.206 0 0 1 1.225-.858ZM69.164 14.036c-3.707 0-3.487 3.3-3.487 3.3v3.337h1.683V17.53c-.024-.39.041-.78.19-1.14.232-.437.683-.657 1.358-.657h.198c.084 0 .176 0 .282.025v-1.708h-.143l-.08-.015ZM62.979 18.917c-.065.095-.142.18-.231.253-.276.19-.608.281-.943.256a1.591 1.591 0 0 1-.894-.216 1.515 1.515 0 0 1-.682-1.335h4.66a8.91 8.91 0 0 0-.059-1.272 3.098 3.098 0 0 0-.51-1.32 2.566 2.566 0 0 0-1.1-.946 3.607 3.607 0 0 0-1.503-.3 3.092 3.092 0 0 0-2.288.887c-.586.591-.88 1.447-.88 2.566 0 1.181.325 2.037.976 2.567.634.52 1.431.799 2.251.788a3.116 3.116 0 0 0 2.409-.935 2.25 2.25 0 0 0 .58-.993h-1.786Zm-2.248-3.135a1.317 1.317 0 0 1 .997-.367c.363-.012.717.111.994.345a1.404 1.404 0 0 1 .444 1.012h-2.882c.038-.37.195-.717.447-.99ZM57.867 20.658h-1.536v-3.872a1.103 1.103 0 0 0-1.133-1.195 1.133 1.133 0 0 0-1.162 1.195v3.872h-1.54v-3.872a1.07 1.07 0 0 0-1.119-1.195 1.124 1.124 0 0 0-1.166 1.195v3.872h-1.54v-3.835c0-1.599 1.06-2.809 2.706-2.809a2.375 2.375 0 0 1 1.91.891 2.456 2.456 0 0 1 1.911-.89c1.68 0 2.67 1.162 2.67 2.808v3.835ZM88.8 12.016s-1.695-.183-1.695 1.18v1.805a1.995 1.995 0 0 0-.733-.708 2.053 2.053 0 0 0-1.03-.257 2.463 2.463 0 0 0-2.017.939 4.144 4.144 0 0 0-.752 2.622c-.036.842.236 1.669.767 2.324.51.605 1.51.87 2.398.87 3.102 0 3.065-2.659 3.065-2.659l-.004-6.116Zm-2.017 6.875a1.239 1.239 0 0 1-1.1.528 1.187 1.187 0 0 1-1.06-.528 2.735 2.735 0 0 1-.367-1.467 2.567 2.567 0 0 1 .345-1.375 1.17 1.17 0 0 1 1.074-.553c.31-.004.611.104.847.304.396.337.59.939.59 1.723.034.48-.081.957-.33 1.368ZM72.966 23.753c-1.393-.066-2.1.264-2.566.616-.635.484-1.02 1.199-1.02 2.343v5.866h.822a.887.887 0 0 0 .601-.223.807.807 0 0 0 .271-.613v-2.2c.182.329.46.594.796.76.345.156.721.233 1.1.223a2.345 2.345 0 0 0 1.918-.935c.52-.728.78-1.61.733-2.504a3.611 3.611 0 0 0-.8-2.453 2.566 2.566 0 0 0-1.855-.88Zm.598 4.829a1.194 1.194 0 0 1-1.023.517 1.242 1.242 0 0 1-1.07-.517 2.233 2.233 0 0 1-.367-1.401 2.496 2.496 0 0 1 .344-1.467 1.228 1.228 0 0 1 1.016-.524 1.24 1.24 0 0 1 1.1.513c.272.44.4.952.367 1.467.03.497-.098.992-.367 1.412ZM65.465 23.749c-1.103 0-1.927.34-2.472 1.02a3.755 3.755 0 0 0-.796 2.401 3.725 3.725 0 0 0 .814 2.42c.543.67 1.367 1.005 2.472 1.005s1.93-.335 2.475-1.005a3.725 3.725 0 0 0 .814-2.42 3.754 3.754 0 0 0-.814-2.413c-.555-.672-1.386-1.008-2.493-1.008Zm1.132 4.924a1.49 1.49 0 0 1-2.27 0 2.443 2.443 0 0 1-.399-1.503 2.425 2.425 0 0 1 .396-1.467 1.497 1.497 0 0 1 2.273 0c.285.435.422.949.393 1.467a2.442 2.442 0 0 1-.392 1.503ZM52.503 26.488a10.637 10.637 0 0 1-1.757-.466.437.437 0 0 1-.249-.418.493.493 0 0 1 .235-.403 1.35 1.35 0 0 1 .78-.172 1.154 1.154 0 0 1 .95.344c.108.151.171.329.184.514h1.683a2.074 2.074 0 0 0-.873-1.65 3.64 3.64 0 0 0-1.969-.48 2.827 2.827 0 0 0-1.973.64 2.01 2.01 0 0 0-.7 1.534 1.466 1.466 0 0 0 .447 1.155c.456.345.986.579 1.548.682a9.504 9.504 0 0 1 1.76.506.476.476 0 0 1 .234.432.465.465 0 0 1-.293.44 1.76 1.76 0 0 1-.792.15 1.57 1.57 0 0 1-1.162-.337 1.13 1.13 0 0 1-.231-.638H48.63a2.087 2.087 0 0 0 .733 1.632c.489.43 1.238.644 2.248.642 1.01-.003 1.743-.204 2.2-.605a1.96 1.96 0 0 0 .686-1.577 1.625 1.625 0 0 0-.495-1.21 3.217 3.217 0 0 0-1.5-.715ZM81.543 27.203a3.249 3.249 0 0 0-1.507-.733 10.732 10.732 0 0 1-1.76-.466.44.44 0 0 1-.246-.418.495.495 0 0 1 .231-.403c.239-.135.512-.195.785-.173a1.154 1.154 0 0 1 .95.345c.107.15.17.328.183.513h1.683a2.075 2.075 0 0 0-.873-1.631 3.666 3.666 0 0 0-1.969-.48 2.827 2.827 0 0 0-1.972.64 1.998 1.998 0 0 0-.7 1.534 1.466 1.466 0 0 0 .447 1.155c.454.338.98.566 1.536.667a9.599 9.599 0 0 1 1.771.517.477.477 0 0 1 .235.433.47.47 0 0 1-.294.44 1.76 1.76 0 0 1-.792.15 1.57 1.57 0 0 1-1.162-.337 1.13 1.13 0 0 1-.23-.638h-1.71a2.08 2.08 0 0 0 .734 1.631c.489.43 1.237.644 2.244.642 1.007-.003 1.74-.204 2.2-.605a1.95 1.95 0 0 0 .733-1.562 1.626 1.626 0 0 0-.517-1.221ZM58.388 24.053h-.059c-.478.017-.949.122-1.39.308v-1.1c0-1.371-1.708-1.192-1.708-1.192v8.379h1.639v-3a2.439 2.439 0 0 1 .19-1.1c.224-.425.664-.641 1.32-.641.657 0 1.1.216 1.32.641.148.347.214.724.191 1.1v3h1.64v-3.201s.212-3.047-3.143-3.194Z" fill="#fff"/></svg>